HIERARCHY
ROOT root
{
	OFFSET 0.000000 0.000000 0.000000
	CHANNELS 6 Xposition Yposition Zposition Zrotation Yrotation Xrotation
	JOINT lhip
	{
		OFFSET 0.058581 -0.082280 -0.017664
		CHANNELS 3 Zrotation Yrotation Xrotation
		JOINT lknee
		{
			OFFSET 0.043451 -0.386469 0.008037
			CHANNELS 3 Zrotation Yrotation Xrotation
			JOINT lankle
			{
				OFFSET -0.014790 -0.426874 -0.037428
				CHANNELS 3 Zrotation Yrotation Xrotation
				JOINT ltoe
				{
					OFFSET 0.041054 -0.060286 0.122042
					CHANNELS 3 Zrotation Yrotation Xrotation
					End Site
					{
						OFFSET 0.000000 0.000000 0.000000
					}
				}
			}
		}
	}
	JOINT rhip
	{
		OFFSET -0.060310 -0.090513 -0.013543
		CHANNELS 3 Zrotation Yrotation Xrotation
		JOINT rknee
		{
			OFFSET -0.043257 -0.383688 -0.004843
			CHANNELS 3 Zrotation Yrotation Xrotation
			JOINT rankle
			{
				OFFSET 0.019056 -0.420046 -0.034562
				CHANNELS 3 Zrotation Yrotation Xrotation
				JOINT rtoe
				{
					OFFSET -0.034840 -0.062106 0.130323
					CHANNELS 3 Zrotation Yrotation Xrotation
					End Site
					{
						OFFSET 0.000000 0.000000 0.000000
					}
				}
			}
		}
	}
	JOINT lowerback
	{
		OFFSET 0.004439 0.124404 -0.038385
		CHANNELS 3 Zrotation Yrotation Xrotation
		JOINT upperback
		{
			OFFSET 0.004488 0.137956 0.026820
			CHANNELS 3 Zrotation Yrotation Xrotation
			JOINT chest
			{
				OFFSET -0.002265 0.056032 0.002855
				CHANNELS 3 Zrotation Yrotation Xrotation
				JOINT lowerneck
				{
					OFFSET -0.013390 0.211636 -0.033468
					CHANNELS 3 Zrotation Yrotation Xrotation
					JOINT upperneck
					{
						OFFSET 0.010113 0.088937 0.050410
						CHANNELS 3 Zrotation Yrotation Xrotation
						End Site
						{
							OFFSET 0.000000 0.000000 0.000000
						}
					}
				}
				JOINT lclavicle
				{
					OFFSET 0.071702 0.114000 -0.018898
					CHANNELS 3 Zrotation Yrotation Xrotation
					JOINT lshoulder
					{
						OFFSET 0.122921 0.045205 -0.019046
						CHANNELS 3 Zrotation Yrotation Xrotation
						JOINT lelbow
						{
							OFFSET 0.255332 -0.015649 -0.022946
							CHANNELS 3 Zrotation Yrotation Xrotation
							JOINT lwrist
							{
								OFFSET 0.265709 0.012698 -0.007375
								CHANNELS 3 Zrotation Yrotation Xrotation
								End Site
								{
									OFFSET 0.000000 0.000000 0.000000
								}
							}
						}
					}
				}
				JOINT rclavicle
				{
					OFFSET -0.082954 0.112472 -0.023707
					CHANNELS 3 Zrotation Yrotation Xrotation
					JOINT rshoulder
					{
						OFFSET -0.113228 0.046853 -0.008472
						CHANNELS 3 Zrotation Yrotation Xrotation
						JOINT relbow
						{
							OFFSET -0.260127 -0.014369 -0.031269
							CHANNELS 3 Zrotation Yrotation Xrotation
							JOINT rwrist
							{
								OFFSET -0.269108 0.006794 -0.006027
								CHANNELS 3 Zrotation Yrotation Xrotation
								End Site
								{
									OFFSET 0.000000 0.000000 0.000000
								}
							}
						}
					}
				}
			}
		}
	}
}
MOTION
Frames: 16
Frame Time: 0.033333
-0.236361 0.289796 0.993472 94.446757 0.511820 84.511282 -1.110680 -1.978813 -0.101480 -4.554116 -12.123968 13.454750 3.921943 5.955686 -13.149909 0.000000 -0.000000 0.000000 0.448437 -0.310870 -3.336823 0.421633 1.076828 18.540385 2.573338 -6.277921 -10.218508 0.000000 -0.000000 0.000000 0.343317 0.099449 10.751356 2.001536 -4.079597 -6.318147 0.926073 -1.705640 -2.319055 4.569061 -4.593245 -9.785418 -0.285146 -10.693133 11.609714 3.530117 -25.016616 -15.426293 -41.759514 -46.227570 12.222657 14.099806 -36.580448 11.174695 2.102009 -7.539626 -5.877823 -3.180906 27.260244 -13.065468 36.632824 42.997800 10.019731 -17.447197 39.268764 1.643470 9.683160 9.835579 -10.372168 
-0.236571 0.293745 0.993171 93.983269 0.542043 84.328967 -1.264551 -1.745263 0.028818 -4.575247 -12.003841 13.407244 3.952929 5.871964 -12.585451 0.000000 -0.000000 0.000000 0.313041 -0.146552 -3.561046 0.356800 1.289166 19.123816 2.558168 -6.261364 -10.240297 0.000000 -0.000000 0.000000 0.285876 0.096127 10.669510 2.061535 -4.282870 -5.847823 1.047229 -1.881250 -2.441122 5.140713 -5.566578 -9.091897 0.323985 -10.933092 10.580201 3.095117 -25.476545 -15.194728 -40.978656 -44.999870 11.804585 14.206741 -36.612865 10.753191 1.017396 -6.974012 -4.995501 -4.108055 27.813043 -13.734658 36.481385 43.182170 9.687787 -17.647169 38.809962 1.043401 11.397869 8.945069 -9.904448 
-0.237373 0.297716 0.992706 93.035248 0.512034 84.297854 -1.297558 -0.957302 0.145879 -4.529320 -11.088441 12.710978 4.095658 5.622256 -11.427578 0.000000 -0.000000 0.000000 0.196259 0.231522 -4.340157 0.264183 1.672317 20.181655 2.659790 -6.191687 -10.239638 0.000000 -0.000000 0.000000 0.165351 -0.136228 11.001751 1.961105 -3.977851 -5.944589 1.177921 -1.782115 -2.432160 5.739673 -7.209031 -9.447724 0.824029 -12.066848 9.981509 2.986044 -25.145242 -14.913692 -40.565819 -44.599920 11.363111 13.816244 -36.506259 11.056015 0.165848 -6.681101 -4.692349 -5.257632 27.839510 -14.366498 36.003325 43.692177 9.138394 -16.738963 38.511406 1.194993 12.286321 8.549611 -10.809087 
-0.238013 0.302548 0.992561 92.137283 0.538625 84.222259 -1.249777 -0.224101 0.696791 -4.695708 -10.771735 11.697409 4.195612 5.520476 -10.679370 0.000000 -0.000000 0.000000 -0.079031 0.410467 -4.907688 0.377216 1.508371 20.896375 2.628699 -5.997921 -10.201495 0.000000 -0.000000 0.000000 0.113308 -0.468890 11.700646 1.833302 -3.887786 -6.112396 1.209728 -1.618862 -2.871448 6.374509 -10.360377 -9.047491 1.396843 -14.585679 9.376085 2.463402 -25.024516 -14.633114 -40.009857 -43.668704 10.931965 13.862625 -36.556588 10.186449 0.100262 -6.661257 -4.152726 -6.126026 28.836462 -14.913641 35.665720 43.808217 8.770049 -16.941185 37.680181 0.232356 12.235046 8.304887 -9.637491 
-0.238630 0.304907 0.992518 91.706834 0.599551 84.178509 -1.087590 0.317513 1.070717 -4.822564 -10.657769 10.918967 4.186662 5.374981 -10.418836 0.000000 -0.000000 0.000000 -0.131952 0.515012 -5.334483 0.362360 1.397097 21.467350 2.558155 -6.130519 -9.995706 0.000000 -0.000000 0.000000 -0.052434 -0.605829 11.723461 1.875720 -3.885940 -5.702035 1.312989 -1.730788 -2.984786 6.727959 -12.416805 -8.917433 1.874302 -16.060585 8.560135 2.053033 -25.305664 -13.788487 -38.849634 -43.017710 10.182575 14.978643 -36.938161 8.835346 0.403407 -6.597426 -4.384236 -6.703623 29.708477 -15.215522 34.904221 43.915004 8.125363 -16.764341 37.080170 -0.506721 12.023237 8.717115 -9.325306 
-0.239155 0.307387 0.992703 91.128309 0.727100 84.265052 -0.971849 0.632318 1.186655 -4.820351 -10.213124 10.439576 4.215402 5.477910 -10.296145 0.000000 -0.000000 0.000000 -0.113264 0.782186 -5.953169 0.541330 1.684277 22.642366 2.601059 -6.235017 -10.178636 0.000000 -0.000000 0.000000 0.023024 -0.965761 12.086817 1.774480 -3.672819 -5.985250 1.173845 -1.785190 -3.162519 7.317090 -14.746612 -9.070623 1.780259 -18.296499 8.569052 1.832520 -24.712673 -13.798405 -38.984980 -42.740950 10.084760 14.882668 -36.716226 8.927921 0.126076 -6.775173 -4.482267 -7.437098 29.991639 -15.480659 35.123606 44.384965 8.185152 -16.907323 36.579474 -1.230816 12.046398 8.702246 -9.600954 
-0.239524 0.308747 0.992817 90.664250 0.757301 84.282532 -0.971407 0.890612 1.259043 -4.826642 -10.117092 10.236116 4.226428 5.564876 -10.182318 0.000000 -0.000000 0.000000 -0.119164 0.736829 -6.485680 0.717069 1.706404 23.534897 2.627351 -6.507843 -10.900854 0.000000 -0.000000 0.000000 0.005646 -0.998813 12.187321 1.655488 -3.508445 -6.110253 1.062199 -1.752429 -3.109223 7.493715 -17.357374 -8.702431 2.057085 -20.197963 8.083987 1.683907 -24.735797 -13.647696 -38.463600 -42.587189 9.812400 14.480276 -36.509418 8.456336 1.254144 -6.449529 -4.239794 -8.011185 30.523965 -15.500331 34.248732 44.419354 7.616899 -16.651845 36.338515 -1.792550 11.003007 8.600615 -9.727338 
-0.239312 0.309213 0.992876 90.356216 0.798569 84.121148 -0.946744 1.019065 1.441014 -4.781599 -10.029274 10.193359 4.329907 5.650509 -10.238134 0.000000 -0.000000 0.000000 -0.034484 0.695557 -6.470735 0.792683 1.761220 23.905943 2.505700 -6.754682 -11.841757 0.000000 -0.000000 0.000000 -0.118713 -0.989460 12.292300 1.621698 -3.490091 -5.991441 1.091702 -1.693739 -3.389233 7.481436 -19.194235 -8.128498 2.120594 -21.404382 7.948758 1.408844 -25.069106 -13.420053 -38.113313 -42.138556 9.635213 14.578308 -36.290493 8.089344 0.976209 -6.025515 -3.837884 -8.467297 31.107470 -15.765257 34.032018 44.079459 7.385104 -16.747959 36.316073 -2.252987 11.764372 8.437985 -9.318760 
-0.238723 0.308545 0.992648 90.059148 0.775905 84.129549 -0.943243 1.113259 1.481366 -4.738001 -9.864712 10.201892 4.514936 5.712770 -10.321782 0.000000 -0.000000 0.000000 0.028436 0.815331 -6.307148 0.738997 2.021321 23.672173 2.536140 -6.694145 -11.078004 0.000000 -0.000000 0.000000 -0.296056 -0.881610 12.190078 1.554828 -3.361299 -6.096645 1.048157 -1.664727 -3.338462 7.581212 -20.481334 -7.936362 2.243826 -22.205258 7.910579 1.529259 -24.795099 -13.618615 -38.473048 -42.391070 9.792540 14.097204 -35.772400 8.373417 1.325417 -5.961153 -3.879010 -8.806190 31.095405 -16.122749 34.423137 44.160045 7.615981 -16.990367 36.089702 -2.462738 12.252777 8.590577 -9.361873 
-0.237240 0.306673 0.992028 90.014756 0.765809 84.054937 -0.846161 0.961738 1.495674 -4.734263 -9.649105 10.484423 4.582126 5.648476 -10.466815 0.000000 -0.000000 0.000000 0.119459 0.379606 -5.441632 0.526957 1.967105 21.998257 2.328876 -6.088288 -10.479324 0.000000 -0.000000 0.000000 -0.471054 -0.524123 12.037073 1.529312 -3.513100 -6.252828 1.035948 -1.602989 -3.577060 7.360456 -21.153187 -7.296151 2.276509 -23.029735 8.235297 1.346148 -24.808527 -13.357678 -39.003782 -42.400237 9.980034 14.488184 -35.659648 8.454093 0.014312 -5.858015 -4.110830 -8.643771 31.064695 -15.806856 35.078086 44.191264 7.768803 -17.819774 36.131463 -2.290211 12.798342 8.271030 -9.278338 
-0.235299 0.304142 0.991282 90.122713 0.713536 83.955161 -0.787964 1.093830 1.607553 -4.648572 -9.820370 10.653868 4.480075 5.608221 -10.507943 0.000000 -0.000000 0.000000 0.277124 0.220939 -4.573832 0.386296 2.259987 21.035737 2.116734 -5.945268 -10.655636 0.000000 -0.000000 0.000000 -0.661429 -0.393331 11.513756 1.435379 -3.497077 -5.965291 0.923306 -1.527220 -3.452134 7.308445 -21.664954 -7.054420 2.205323 -23.474904 8.586851 1.247748 -24.759115 -13.590968 -39.293811 -42.668668 10.202339 14.339761 -35.492802 8.505086 0.548270 -5.745176 -4.155016 -8.161124 30.962029 -15.769969 35.055700 44.310813 7.646641 -17.491343 35.971979 -2.145822 12.661585 8.229442 -8.868639 
-0.233536 0.301301 0.991529 90.034962 0.739584 84.007734 -0.699036 0.874438 1.699246 -4.378088 -9.416129 10.607335 4.390637 5.520998 -10.520063 0.000000 -0.000000 0.000000 0.424333 0.355054 -4.134399 0.411350 2.448168 20.377155 2.118945 -5.669131 -10.472582 0.000000 -0.000000 0.000000 -0.721498 -0.270702 11.209973 1.402855 -3.380787 -6.147570 0.854292 -1.364851 -3.536728 7.353997 -21.745612 -7.130730 1.987655 -24.022947 9.123565 0.932273 -24.352775 -13.362948 -39.877112 -43.172673 10.362461 14.288424 -35.336852 8.174790 0.123824 -5.865119 -4.306402 -7.672563 30.596600 -15.619855 35.833530 44.310281 8.210205 -17.404626 36.116633 -1.997951 12.619891 8.208193 -8.890214 
-0.232518 0.298283 0.992100 90.166340 0.818338 84.066725 -0.592292 0.779232 1.946061 -3.982409 -9.441085 10.021931 4.189403 5.452503 -10.192860 0.000000 -0.000000 0.000000 0.563165 0.045911 -3.802493 0.412899 2.220213 19.680622 2.199238 -5.379452 -10.261325 0.000000 -0.000000 0.000000 -0.723691 -0.118538 10.819936 1.409943 -3.406140 -5.983776 0.855504 -1.286301 -3.485147 7.338683 -21.941913 -7.320544 2.273493 -24.114611 8.522997 0.847501 -24.095600 -13.428037 -40.195784 -43.339798 10.587796 14.354658 -35.590026 8.255740 0.256757 -5.759611 -4.881844 -7.354153 30.404832 -15.333227 36.011430 44.162789 8.280541 -17.538541 36.646503 -1.779530 12.263725 8.101928 -9.478192 
-0.230472 0.294828 0.992527 90.320849 0.817946 84.130246 -0.444321 0.755398 2.219658 -3.801398 -9.537141 9.526800 3.972535 5.508314 -10.152805 0.000000 -0.000000 0.000000 0.683314 -0.109650 -3.288534 0.515005 2.336419 18.888793 2.306206 -5.303419 -10.156356 0.000000 -0.000000 0.000000 -0.835394 -0.031573 10.173928 1.377594 -3.260244 -5.774802 0.910447 -1.351453 -3.508073 7.411644 -21.950725 -7.585902 2.052886 -24.344024 8.499773 0.925788 -23.995905 -13.269012 -40.470747 -43.423269 10.696611 14.521267 -35.664702 8.590724 -0.037790 -5.915997 -5.278376 -7.131738 30.366806 -14.979837 36.368388 44.067140 8.487392 -17.183012 36.708707 -1.561745 11.543622 8.936097 -10.252982 
-0.230226 0.291921 0.992787 90.789482 0.750143 84.254191 -0.392214 0.720156 2.167207 -3.685583 -9.793353 9.335958 4.024625 5.354180 -10.051332 0.000000 -0.000000 0.000000 0.791669 -0.172832 -3.172960 0.538303 2.363671 18.685039 2.302397 -5.496365 -10.205882 0.000000 -0.000000 0.000000 -1.043132 0.009659 10.155196 1.403873 -3.355335 -6.002400 0.943249 -1.304176 -3.709175 7.556391 -22.194699 -7.887535 1.998925 -24.569382 8.506790 1.002958 -24.011008 -13.454623 -40.564170 -43.439279 10.875356 14.372822 -35.836210 9.056728 -0.194141 -5.403468 -4.793091 -6.871435 30.316721 -14.776084 36.557560 43.338883 8.884967 -17.909360 37.577412 -1.483669 12.441795 8.354935 -10.117257 
-0.229732 0.289179 0.992859 91.188746 0.664111 84.397976 -0.306206 0.555571 1.970640 -3.715555 -9.788190 9.402993 3.890031 5.284174 -9.961235 0.000000 -0.000000 0.000000 0.867702 -0.321774 -3.121290 0.527176 2.297841 18.388946 2.303900 -5.661390 -10.165328 0.000000 -0.000000 0.000000 -1.174431 0.075373 9.741944 1.439663 -3.488107 -5.866522 0.990959 -1.329974 -3.620486 7.536996 -22.032857 -8.348850 2.299281 -24.465227 8.195474 0.968227 -24.247040 -13.406086 -40.097564 -43.363199 10.568327 14.546544 -35.915483 8.524851 0.674754 -5.556437 -4.829704 -6.504947 30.422789 -14.272385 36.130745 43.110986 8.601665 -18.016267 38.156866 -1.492112 12.047172 8.527996 -10.514070 
